PathFileType	4	(X/Y/Z)	 s06c0203.trc
DataRate	CameraRate	NumFrames	NumMarkers	Units	OrigDataRate	OrigDataStartFrame	OrigNumFrames
200	200	4	48	mm	200	1751	2000
Frame#	Time	racr			lacr			c7			jug			rlel			rdr			llel			ldr			s2			lic			ric			lasi			rasi			rpsi			lpsi			rgt			lgt			rth1			rth2			rth3			rth4			rlfc			rmfc			rsh1			rsh2			rsh3			rsh4			rlmal			rcal			rtoe			rmt5			lth1			lth2			lth4			lth3			llfc			lmfc			llmal			lcal			lmt5			lsh1			lsh2			lsh3			lsh4			ltoe			SBIKE			LBIKE			RBIKE			
		X1	Y1	Z1	X2	Y2	Z2	X3	Y3	Z3	X4	Y4	Z4	X5	Y5	Z5	X6	Y6	Z6	X7	Y7	Z7	X8	Y8	Z8	X9	Y9	Z9	X10	Y10	Z10	X11	Y11	Z11	X12	Y12	Z12	X13	Y13	Z13	X14	Y14	Z14	X15	Y15	Z15	X16	Y16	Z16	X17	Y17	Z17	X18	Y18	Z18	X19	Y19	Z19	X20	Y20	Z20	X21	Y21	Z21	X22	Y22	Z22	X23	Y23	Z23	X24	Y24	Z24	X25	Y25	Z25	X26	Y26	Z26	X27	Y27	Z27	X28	Y28	Z28	X29	Y29	Z29	X30	Y30	Z30	X31	Y31	Z31	X32	Y32	Z32	X33	Y33	Z33	X34	Y34	Z34	X35	Y35	Z35	X36	Y36	Z36	X37	Y37	Z37	X38	Y38	Z38	X39	Y39	Z39	X40	Y40	Z40	X41	Y41	Z41	X42	Y42	Z42	X43	Y43	Z43	X44	Y44	Z44	X45	Y45	Z45	X46	Y46	Z46	X47	Y47	Z47	X48	Y48	Z48	
1751	8.7550	580.817044	1198.207923	-73.829824	600.992914	1173.767897	-386.525187	606.311349	1277.715727	-227.462666	564.779788	1125.566642	-226.304074	488.283274	991.045227	78.676833	659.631762	917.902576	-49.959101	489.073144	973.315844	-537.667982	655.110227	917.138355	-407.621060	37.900039	1141.652773	-241.381457	193.819983	1087.641522	-396.214936	168.151033	1107.488701	-65.794674	206.111341	1038.189206	-350.077119	200.104031	1071.979019	-95.071416	69.726379	1176.603844	-209.813472	72.510535	1172.236204	-267.744534	130.998339	1027.633439	-33.198110	173.028311	1031.286727	-419.544877	209.885592	907.795294	-12.964608	272.602457	841.631770	-16.880597	292.581247	757.070340	-25.749843	303.771212	861.199803	-30.319024	326.043439	653.025715	-41.352411	318.623320	627.580433	-147.193719	295.175339	531.563618	-16.101236	295.107352	446.197729	-37.438276	255.368093	368.977345	-41.133151	315.540374	446.236976	-71.814477	227.337745	289.035088	-47.421953	164.695199	254.046589	-95.971266	441.066022	252.389495	-95.012279	345.713576	224.770571	-24.810488	230.710784	939.263409	-430.162630	307.542835	898.489813	-424.256838	330.074726	922.670525	-407.250124	355.736270	823.572651	-428.874223	386.508424	717.193448	-402.764852	385.417672	704.189653	-285.797466	59.357742	548.473511	-369.762528	-15.939309	575.105344	-319.158158	104.329190	422.027567	-396.449450	297.086035	653.576077	-415.994442	232.047492	603.359992	-387.679918	145.321930	584.620708	-384.608379	246.995558	586.861038	-355.753422	176.408002	370.573498	-340.125561	-204.531469	866.415897	-203.099206	-52.153909	83.923887	-410.618790	-50.962232	80.016430	-13.734186	
1752	8.7600	582.158288	1199.090115	-75.721886	599.333564	1173.758307	-388.873847	606.742710	1277.873832	-229.845386	564.244473	1126.009109	-227.762265	490.404769	992.264134	78.154212	660.116182	917.674678	-50.870999	488.294465	971.737107	-538.299993	654.825016	917.192830	-407.557931	38.635985	1142.133608	-238.599801	193.027887	1088.974743	-395.297783	170.669454	1107.475272	-64.291003	206.055960	1039.835722	-348.820827	201.924678	1070.935685	-94.103719	70.715370	1177.028731	-207.164512	72.767212	1172.882301	-264.952568	131.836939	1025.812041	-32.221056	173.114006	1035.165331	-418.015133	207.389235	902.893436	-12.580938	268.187620	834.625947	-15.928878	284.621697	749.359135	-26.151006	299.221631	853.015116	-29.524845	315.576963	644.297025	-40.976657	306.966794	618.728522	-146.747528	285.483548	523.516286	-15.507448	286.644049	438.002485	-37.072099	247.847268	360.401512	-40.719604	307.714871	438.396988	-71.428546	220.842377	280.611957	-46.982051	157.423080	246.728182	-94.708892	434.529360	243.365311	-95.215626	339.239338	216.073799	-24.774040	232.065772	944.525987	-428.748305	309.894355	905.367601	-423.639333	332.135563	930.144740	-407.086358	359.569217	831.277268	-428.562465	393.362505	725.602115	-401.990872	389.773428	712.550359	-285.931944	66.017977	557.244857	-369.582191	-9.556248	583.645522	-318.872562	110.976776	430.885641	-396.418643	304.026207	662.231889	-415.232823	238.748870	612.017564	-387.243950	151.969412	593.601086	-384.340126	253.691578	595.326680	-355.289710	183.206879	379.804770	-340.585230	-204.507278	866.417181	-202.914604	-52.148072	83.945154	-410.602383	-50.954691	80.005754	-13.707381	
1753	8.7650	583.537528	1199.848653	-77.624582	597.760132	1173.667612	-391.091505	606.951671	1277.673430	-232.342781	563.877039	1126.000210	-229.037745	492.139975	993.835266	77.884599	660.429521	917.106685	-51.864334	487.531443	970.185862	-538.815570	654.532724	917.321380	-407.378285	39.390741	1142.629905	-235.663272	192.160938	1090.210288	-394.338953	173.492957	1107.394743	-62.728208	206.106579	1041.694327	-347.770235	205.074550	1069.265227	-94.081653	71.679005	1177.291273	-204.393733	73.044069	1173.460420	-262.120387	132.936248	1023.832593	-31.155373	173.006833	1039.001767	-416.428099	204.657799	898.020790	-11.926242	263.153625	827.871590	-15.452453	276.718331	742.248281	-26.475215	294.832863	845.296853	-29.033055	304.836900	636.431691	-40.589370	295.512275	610.292737	-146.520627	276.281351	516.493194	-15.106186	278.132575	431.118882	-36.655451	240.146983	353.051948	-40.283371	299.175848	431.590718	-71.015686	214.119812	272.874916	-46.663205	150.440317	239.417961	-94.249959	427.532013	234.508722	-95.366105	332.240709	207.908504	-24.692681	233.136713	949.688422	-427.411132	311.962688	912.327016	-423.327812	333.861286	937.749933	-407.221690	363.286871	839.397606	-427.719748	400.145012	734.334760	-401.078734	396.831835	721.440074	-284.706209	72.978957	565.464820	-369.152544	-2.823017	591.677857	-318.677838	118.173808	439.334409	-396.345673	311.119107	670.949838	-414.316421	245.773963	620.634348	-386.762292	159.026469	602.010247	-383.693383	260.608535	603.778378	-354.836127	190.280437	388.056001	-339.985845	-204.498590	866.425653	-202.799296	-52.157127	83.965242	-410.571336	-50.936856	79.977977	-13.695462	
1754	8.7700	584.807564	1200.633017	-79.647022	596.197613	1173.521177	-393.330956	606.961515	1277.767956	-234.787349	563.646996	1126.194742	-230.508548	493.811290	995.467438	77.577872	660.712348	916.799697	-52.396442	486.701033	968.640002	-539.286354	654.291541	917.471706	-407.266244	40.045937	1142.748083	-232.356061	191.115537	1091.377017	-393.383459	176.164608	1106.736091	-61.437331	206.000786	1043.419207	-346.948321	207.766433	1066.934539	-94.515569	72.353732	1177.269201	-201.084913	73.335775	1173.922603	-259.231041	134.160759	1021.722550	-30.075838	172.601737	1042.828260	-414.915626	201.989127	893.556350	-10.954682	258.062908	821.802039	-14.811505	268.849642	735.713382	-26.719729	290.412463	837.972810	-28.846618	294.248641	629.452640	-40.259214	283.546764	603.378613	-146.810632	267.083840	510.502216	-14.264708	269.606192	425.046355	-36.395743	232.231648	346.750173	-39.836213	290.617376	425.747678	-70.733100	207.048148	266.050831	-46.440059	143.014887	232.935809	-93.704025	420.136715	225.863384	-95.599225	324.877238	200.290790	-24.657749	233.911744	954.760888	-426.340261	313.692028	919.206427	-423.115388	335.303592	945.301928	-407.527624	366.219203	847.579007	-427.901170	407.037322	743.286994	-400.147791	403.461384	730.817786	-284.027468	80.256923	573.479098	-368.919269	4.342466	599.165046	-318.686556	126.170346	447.501846	-396.617624	318.396315	679.825153	-413.313609	253.068222	629.164539	-386.175635	166.347076	610.305311	-383.371624	267.910313	612.215264	-354.355552	198.809567	397.030856	-339.989558	-204.508872	866.379977	-202.574456	-52.168949	83.985508	-410.560177	-51.006366	79.865887	-13.678520	
